<svg width="670" height="151" viewBox="0 0 670 151" fill="none" xmlns="http://www.w3.org/2000/svg">
<g clip-path="url(#clip0_4_18)">
<path d="M441.6 56.3029V43.6122H471.561V45.6736C471.561 67.1898 471.561 88.7061 471.561 110.222C471.561 112.413 471.876 114.667 472.444 116.793C473.264 120.014 475.409 121.496 478.689 121.431C480.455 121.431 482.221 121.302 484.05 121.238V148.037C482.158 148.874 480.076 149.132 478.058 149.39C473.643 149.84 469.227 149.969 464.812 149.39C458.063 148.616 452.133 146.104 447.907 140.371C446.709 138.696 445.826 136.892 444.69 135.024C444.564 135.153 444.312 135.282 444.186 135.539C439.455 142.174 432.958 146.169 425.263 148.101C418.829 149.712 412.269 150.034 405.646 149.454C382.371 147.521 365.908 129.291 361.745 108.805C359.222 96.4364 359.789 84.2611 364.898 72.6011C370.702 59.2662 380.163 49.6032 393.725 44.5141C398.266 42.7747 402.997 42.0017 407.854 41.744C414.161 41.4219 420.28 42.0017 426.272 44.0631C430.309 45.4804 434.031 47.413 437.121 50.5051C438.635 51.9868 439.834 53.6617 440.78 55.5943C440.906 55.852 441.095 56.1096 441.221 56.3673C441.347 56.3673 441.474 56.3673 441.537 56.3673L441.6 56.3029ZM441.6 95.6634C441.6 93.0222 441.6 90.381 441.6 87.6753C441.6 86.5158 441.41 85.4851 440.843 84.4543C436.238 76.0798 429.552 70.7329 420.027 69.6378C410.818 68.5427 403.06 71.3771 396.815 78.4633C392.021 83.8746 390.255 90.2521 390.634 97.4027C391.075 105.133 394.292 111.317 400.221 116.084C406.024 120.787 412.711 122.333 419.964 121.496C429.741 120.336 436.68 115.118 441.032 106.228C441.41 105.52 441.537 104.618 441.537 103.78C441.6 101.075 441.537 98.369 441.537 95.6634H441.6Z" fill="#EA0558"/>
<path d="M98.1458 59.7172C91.712 66.5457 85.5936 72.9232 79.4121 79.4296C78.6551 78.721 77.9613 78.0768 77.2674 77.4326C70.7706 71.2483 63.0752 68.285 54.2445 68.8004C41.8184 69.5734 32.8615 78.2056 30.5277 89.8012C28.7615 98.4335 30.2753 106.422 35.6999 113.379C39.863 118.726 45.3507 121.818 51.9737 122.72C62.3814 124.137 71.2121 120.594 78.5921 113.121C78.7813 112.928 78.9074 112.735 79.2859 112.284C85.7197 118.597 91.8382 125.039 98.2089 131.352C94.5504 135.475 90.5766 139.082 86.0351 142.046C78.6551 146.877 70.5182 149.647 61.7506 150.42C51.1537 151.322 40.8091 150.227 31.1584 145.524C15.8939 138.116 5.61239 126.392 1.38625 109.449C-0.127587 102.943 -0.316817 96.4364 0.313949 89.8012C1.07087 81.491 3.53086 73.6963 8.13545 66.7389C16.5246 53.9194 28.1307 45.6736 43.0168 42.4527C53.1722 40.2624 63.3275 40.5201 73.3567 43.6766C81.809 46.3178 89.0628 51.0205 95.4335 57.2692C96.3797 58.2355 97.515 59.073 98.2089 59.7172H98.1458Z" fill="#EA0558"/>
<path d="M661.8 50.2474C658.331 57.6557 654.988 64.7419 651.582 71.9569C650.51 71.506 649.5 71.055 648.554 70.6041C644.013 68.6071 639.219 67.4475 634.236 67.1254C631.208 66.9322 628.18 66.5456 625.216 67.1898C623.891 67.5119 622.503 68.0273 621.305 68.6715C617.899 70.4752 617.079 76.3374 621.557 78.4633C623.765 79.494 626.099 80.2671 628.433 80.9757C635.686 83.0371 642.94 85.0985 649.879 87.9974C654.105 89.7368 658.016 91.9915 661.422 95.148C666.783 100.108 669.559 106.293 669.874 113.636C670.126 118.854 669.622 123.944 667.793 128.84C664.954 136.506 659.656 141.917 652.591 145.589C647.166 148.359 641.426 149.712 635.434 150.485C627.739 151.451 620.107 151.193 612.411 150.485C607.176 149.969 602.004 149.196 596.831 148.488C596.516 148.488 596.137 148.294 595.759 148.166V120.98C596.201 120.98 596.642 120.98 597.021 121.109C604.779 122.655 612.537 124.073 620.422 124.652C624.9 124.974 629.442 125.296 633.92 124.073C635.434 123.686 636.885 123.042 638.21 122.269C641.49 120.401 643.13 114.732 638.336 111.639C635.623 109.836 632.596 108.934 629.568 108.096C623.765 106.421 617.962 104.875 612.222 102.943C606.545 101.01 601.436 98.0469 597.147 93.6019C592.984 89.2858 590.65 84.1322 590.019 78.0768C589.388 71.8281 590.145 65.837 592.794 60.1037C595.507 54.2415 600.048 50.2474 605.41 47.0264C611.591 43.3545 618.277 41.6152 625.405 41.1642C635.371 40.52 644.959 42.2594 654.105 46.3822C656.628 47.5418 659.088 48.959 661.737 50.3763L661.8 50.2474Z" fill="#EA0558"/>
<path d="M139.841 43.9987H170.307C179.138 65.9014 188.031 87.8042 196.862 109.707C196.988 109.707 197.114 109.707 197.178 109.707C205.945 87.8042 214.713 65.9659 223.544 43.9987H254.01C239.439 78.721 224.931 113.314 210.361 147.972H183.427C168.919 113.443 154.412 78.8498 139.778 43.9987H139.841Z" fill="#EA0558"/>
<path d="M305.985 4.05844H335.189V43.8699C337.145 44.0631 339.037 43.9343 340.866 43.9343C342.759 43.9343 344.588 43.9343 346.48 43.9343H357.834V71.6348C350.454 71.7636 343.011 71.6348 335.379 71.6992C335.379 72.3434 335.252 72.9232 335.252 73.503C335.252 84.712 335.252 95.9211 335.252 107.13C335.252 108.998 335.442 110.931 335.757 112.799C336.64 118.339 340.046 121.238 345.849 121.753C348.94 122.011 351.968 121.753 354.995 121.174C355.248 121.174 355.5 121.174 355.878 121.174V148.423C354.743 148.681 353.608 148.939 352.409 149.196C344.651 150.613 336.892 150.742 329.197 148.939C316.96 146.169 309.769 138.245 307.183 125.812C306.363 121.882 306.048 117.953 306.048 113.959C306.048 78.0768 306.048 42.1305 306.048 6.24871V3.99402L305.985 4.05844Z" fill="#EA0558"/>
<path d="M541.008 43.9343V71.5704C537.287 71.7637 533.565 71.6348 529.844 71.6348C526.122 71.6348 522.401 71.6348 518.49 71.6348C518.49 72.3434 518.364 72.9232 518.364 73.4386C518.364 85.2274 518.364 97.0162 518.364 108.805C518.364 110.48 518.616 112.219 518.995 113.83C520.004 118.017 522.653 120.529 526.753 121.367C529.655 121.947 532.556 121.818 535.458 121.496C536.53 121.367 537.602 121.174 538.801 121.045V148.423C536.845 148.81 534.827 149.261 532.872 149.518C526.627 150.356 520.445 150.356 514.264 149.261C507.136 147.972 500.892 145.073 496.224 139.211C492.818 134.895 490.863 129.87 490.043 124.459C489.475 120.723 489.096 116.986 489.096 113.25C489.033 77.5614 489.096 41.8729 489.096 6.1843V4.12287C490.295 3.73635 516.598 3.67193 518.364 4.05845V43.6766C520.319 43.8699 522.212 43.741 524.041 43.8055C525.933 43.8055 527.762 43.8055 529.655 43.8055H541.008V43.9343Z" fill="#EA0558"/>
<path d="M297.532 121.238V148.23C297.217 148.359 296.775 148.616 296.397 148.681C289.143 150.227 281.889 150.613 274.635 148.874C265.552 146.684 260.317 140.628 258.172 131.481C257.352 128.067 257.037 124.588 257.037 121.045C257.037 95.9211 257.037 70.7974 257.037 45.6736V43.9987H287.125V45.9957C287.125 67.5119 287.125 89.0282 287.125 110.48C287.125 112.413 287.314 114.41 287.755 116.278C288.512 119.756 290.594 121.367 294.126 121.367C295.262 121.367 296.397 121.238 297.595 121.174L297.532 121.238Z" fill="#EA0558"/>
<path d="M104.897 43.9987H134.984V46.0601C134.984 67.6408 134.984 89.2858 134.984 110.866C134.984 112.477 135.11 114.152 135.426 115.762C136.119 119.692 138.264 121.431 142.112 121.367C143.121 121.367 144.193 121.238 145.329 121.174V148.23C143.184 149.132 140.913 149.39 138.643 149.583C134.732 149.905 130.884 150.098 126.973 149.583C123.063 149.132 119.341 148.166 115.872 146.104C110.573 142.883 107.672 137.987 106.095 132.061C105.212 128.646 104.833 125.168 104.833 121.689C104.833 96.4364 104.833 71.1194 104.833 45.8669V43.8699L104.897 43.9987Z" fill="#EA0558"/>
<path d="M548.262 43.9987H578.224V46.0601C578.224 67.3187 578.224 88.5128 578.224 109.771C578.224 111.833 578.413 113.894 578.791 115.956C579.485 119.821 581.63 121.496 585.414 121.431C586.424 121.431 587.496 121.302 588.631 121.238V148.294C586.487 149.196 584.153 149.454 581.819 149.647C577.971 149.969 574.124 150.163 570.276 149.647C563.338 148.874 557.282 146.426 553.056 140.435C550.344 136.506 549.019 132.061 548.578 127.358C548.262 124.652 548.199 121.882 548.199 119.112C548.199 94.7615 548.199 70.4753 548.199 46.1246V43.9343L548.262 43.9987Z" fill="#EA0558"/>
<path d="M271.986 1.15749e-05C280.943 1.15749e-05 289.017 6.95735 289.143 17.4578C289.206 27.1207 281.511 34.8511 271.923 34.8511C262.714 34.8511 254.83 27.7649 254.83 17.5222C254.83 6.50641 263.408 -0.128828 272.05 1.15749e-05H271.986Z" fill="#EA0558"/>
<path d="M546.117 17.4578C545.802 8.37457 553.182 0 563.211 0C572.862 0 580.368 7.73037 580.368 17.5866C580.368 27.1852 572.736 34.8511 563.211 34.8511C552.614 34.8511 545.739 25.9612 546.117 17.3933V17.4578Z" fill="#EA0558"/>
<path d="M119.846 0C129.496 0 137.002 7.7948 136.939 17.651C136.939 27.2496 129.244 34.9155 119.719 34.8511C109.753 34.8511 102.499 26.6698 102.626 17.3933C102.815 7.53712 110.195 0 119.846 0Z" fill="#EA0558"/>
</g>
<defs>
<clipPath id="clip0_4_18">
<rect width="670" height="151" fill="white"/>
</clipPath>
</defs>
</svg>
