<svg id="Capa_1" data-name="Capa 1" xmlns="http://www.w3.org/2000/svg" viewBox="0 0 71.05 21.76"><defs><style>.cls-1{fill:#1c1a1a;}</style></defs><title>milan</title><path class="cls-1" d="M0,21.49V.57H3.87L11,11.29,18.22.57h3.87V21.49H17.74V8.73L11,18.64,4.32,8.73V21.49Z"/><path class="cls-1" d="M27.1,0a2.54,2.54,0,1,1-2.55,2.55A2.53,2.53,0,0,1,27.1,0ZM24.88,21.49V6.36h4.47V21.49Z"/><path class="cls-1" d="M31.61,21.49V.57h4.47V21.49Z"/><path class="cls-1" d="M49.67,8.34v-2h4.47V21.49H49.67v-2c-.45,1.32-2.22,2.25-4.5,2.25a7.16,7.16,0,0,1-5.37-2.25,8,8,0,0,1-2.13-5.58A7.83,7.83,0,0,1,39.8,8.37a7.08,7.08,0,0,1,5.37-2.28C47.45,6.09,49.22,7,49.67,8.34Zm-.9,8.28a3.62,3.62,0,0,0,1.17-2.7,3.51,3.51,0,0,0-1.17-2.67A3.78,3.78,0,0,0,46,10.15a3.69,3.69,0,0,0-2.73,1.11,3.56,3.56,0,0,0-1.11,2.67,3.67,3.67,0,0,0,1.11,2.7A3.79,3.79,0,0,0,46,17.71,3.88,3.88,0,0,0,48.77,16.63Zm-4-11.71L46.25.57h4.83l-3,4.35Z"/><path class="cls-1" d="M56.37,21.49V6.36h4.47V8.25A4.75,4.75,0,0,1,65.25,6C68.94,6,71,8.37,71,12.31v9.18H66.57V12.85A2.57,2.57,0,0,0,63.81,10a2.88,2.88,0,0,0-3,3v8.49Z"/></svg>